<svg width="1280" height="920" viewBox="0 0 1280 920" fill="none" xmlns="http://www.w3.org/2000/svg">
  <defs>
    <linearGradient id="bg" x1="96" y1="48" x2="1184" y2="856" gradientUnits="userSpaceOnUse">
      <stop stop-color="#F7F1E7"/>
      <stop offset="1" stop-color="#E7DED0"/>
    </linearGradient>
    <linearGradient id="cardFront" x1="0" y1="0" x2="1" y2="1">
      <stop stop-color="#D57C45"/>
      <stop offset="1" stop-color="#762D1C"/>
    </linearGradient>
    <linearGradient id="cardSide" x1="0" y1="0" x2="1" y2="1">
      <stop stop-color="#5B4A41"/>
      <stop offset="1" stop-color="#2A231F"/>
    </linearGradient>
    <filter id="windowShadow" x="176" y="92" width="928" height="736" filterUnits="userSpaceOnUse" color-interpolation-filters="sRGB">
      <feFlood flood-opacity="0" result="BackgroundImageFix"/>
      <feColorMatrix in="SourceAlpha" type="matrix" values="0 0 0 0 0 0 0 0 0 0 0 0 0 0 0 0 0 0 127 0" result="hardAlpha"/>
      <feOffset dy="24"/>
      <feGaussianBlur stdDeviation="22"/>
      <feColorMatrix type="matrix" values="0 0 0 0 0.0901961 0 0 0 0 0.0666667 0 0 0 0 0.054902 0 0 0 0.2 0"/>
      <feBlend mode="normal" in2="BackgroundImageFix" result="effect1_dropShadow_0_1"/>
      <feBlend mode="normal" in="SourceGraphic" in2="effect1_dropShadow_0_1" result="shape"/>
    </filter>
  </defs>

  <rect width="1280" height="920" fill="url(#bg)"/>
  <rect x="52" y="52" width="1176" height="816" rx="28" stroke="#D8CCBC"/>
  <text x="110" y="126" fill="#A24A32" font-size="16" font-family="'SFMono-Regular', Menlo, monospace" letter-spacing="4">MY LIBRARY</text>
  <text x="110" y="170" fill="#1B1714" font-size="58" font-family="Georgia, serif" font-weight="700">Flip cards, search, filters.</text>
  <text x="110" y="214" fill="#6B5E52" font-size="22" font-family="'SFMono-Regular', Menlo, monospace">The README should show the interface, so this one does.</text>

  <g filter="url(#windowShadow)">
    <rect x="220" y="136" width="840" height="648" rx="30" fill="#FBF6F0"/>
    <rect x="220" y="136" width="840" height="38" rx="30" fill="#EAE1D4"/>
    <circle cx="252" cy="155" r="6" fill="#B1A292"/>
    <circle cx="274" cy="155" r="6" fill="#B1A292"/>
    <circle cx="296" cy="155" r="6" fill="#B1A292"/>

    <rect x="256" y="198" width="768" height="552" rx="24" fill="#1B1714"/>

    <circle cx="294" cy="230" r="14" fill="#25201D" stroke="#4A403A"/>
    <path d="M287 230H301" stroke="#F5F0E8" stroke-width="2" stroke-linecap="round"/>
    <path d="M294 223V237" stroke="#F5F0E8" stroke-width="2" stroke-linecap="round"/>
    <circle cx="336" cy="230" r="14" fill="#25201D" stroke="#4A403A"/>
    <path d="M330 230H342" stroke="#D0C6BA" stroke-width="2" stroke-linecap="round"/>
    <circle cx="378" cy="230" r="14" fill="#25201D" stroke="#4A403A"/>
    <path d="M372 230H384" stroke="#D0C6BA" stroke-width="2" stroke-linecap="round"/>
    <circle cx="980" cy="230" r="14" fill="#25201D" stroke="#4A403A"/>
    <path d="M973 230H987" stroke="#D0C6BA" stroke-width="2" stroke-linecap="round"/>

    <text x="624" y="240" text-anchor="middle" fill="#A9A095" font-size="12" font-family="'SFMono-Regular', Menlo, monospace" letter-spacing="3">MY</text>
    <text x="624" y="264" text-anchor="middle" fill="#F5F0E8" font-size="20" font-family="'SFMono-Regular', Menlo, monospace" font-weight="700" letter-spacing="3">LIBRARY</text>
    <text x="300" y="288" fill="#938479" font-size="12" font-family="'SFMono-Regular', Menlo, monospace">12 / 147</text>

    <rect x="340" y="314" width="600" height="38" rx="19" fill="#26211E" stroke="#49403A"/>
    <circle cx="368" cy="333" r="8" stroke="#938479" stroke-width="2"/>
    <path d="M374 339L380 345" stroke="#938479" stroke-width="2" stroke-linecap="round"/>
    <text x="394" y="338" fill="#938479" font-size="13" font-family="'SFMono-Regular', Menlo, monospace">Search title, director, year, country, decade</text>

    <rect x="362" y="392" width="164" height="316" rx="18" fill="url(#cardSide)" opacity="0.7"/>
    <rect x="380" y="376" width="210" height="348" rx="20" fill="url(#cardSide)" opacity="0.86"/>
    <rect x="450" y="352" width="274" height="388" rx="22" fill="url(#cardFront)"/>
    <rect x="472" y="374" width="230" height="256" rx="14" fill="#1F1715" fill-opacity="0.2" stroke="#F4D0A0" stroke-opacity="0.35"/>
    <text x="587" y="480" text-anchor="middle" fill="#F4E6D6" font-size="18" font-family="'SFMono-Regular', Menlo, monospace" letter-spacing="3">WONG KAR-WAI</text>
    <text x="587" y="528" text-anchor="middle" fill="#FFF8EF" font-size="34" font-family="Georgia, serif" font-weight="700">In the Mood</text>
    <text x="587" y="568" text-anchor="middle" fill="#FFF8EF" font-size="34" font-family="Georgia, serif" font-weight="700">for Love</text>
    <text x="587" y="614" text-anchor="middle" fill="#F4D0A0" font-size="14" font-family="'SFMono-Regular', Menlo, monospace">2000 · Hong Kong · 98 min</text>

    <rect x="492" y="650" width="190" height="56" rx="16" fill="#FBF6F0"/>
    <text x="512" y="672" fill="#A24A32" font-size="11" font-family="'SFMono-Regular', Menlo, monospace" letter-spacing="3">CURRENT CARD</text>
    <text x="512" y="698" fill="#1B1714" font-size="18" font-family="Georgia, serif" font-weight="700">Original soundtrack found</text>

    <rect x="764" y="404" width="208" height="82" rx="18" fill="#26211E" stroke="#4A403A"/>
    <text x="788" y="434" fill="#A9A095" font-size="12" font-family="'SFMono-Regular', Menlo, monospace" letter-spacing="3">DETAILS</text>
    <text x="788" y="462" fill="#F5F0E8" font-size="20" font-family="Georgia, serif" font-weight="700">Mood, color, geography</text>
    <text x="788" y="482" fill="#938479" font-size="12" font-family="'SFMono-Regular', Menlo, monospace">Focused library film syncs the soundtrack tab.</text>

    <rect x="336" y="770" width="116" height="28" rx="14" fill="#F0E3D4"/>
    <text x="361" y="788" fill="#6B5E52" font-size="12" font-family="'SFMono-Regular', Menlo, monospace">1960S</text>
    <rect x="462" y="770" width="132" height="28" rx="14" fill="#D77A3B"/>
    <text x="487" y="788" fill="#FFF8F1" font-size="12" font-family="'SFMono-Regular', Menlo, monospace" font-weight="700">HONG KONG</text>
    <rect x="604" y="770" width="112" height="28" rx="14" fill="#F0E3D4"/>
    <text x="628" y="788" fill="#6B5E52" font-size="12" font-family="'SFMono-Regular', Menlo, monospace">DRAMA</text>
    <rect x="726" y="770" width="130" height="28" rx="14" fill="#F0E3D4"/>
    <text x="750" y="788" fill="#6B5E52" font-size="12" font-family="'SFMono-Regular', Menlo, monospace">WONG KAR-WAI</text>
  </g>

  <text x="110" y="796" fill="#1B1714" font-size="16" font-family="'SFMono-Regular', Menlo, monospace" letter-spacing="3">INLINE CARD BROWSER</text>
  <text x="110" y="832" fill="#6B5E52" font-size="19" font-family="Georgia, serif">Modeled on the actual popover library: card stack, search field, and filter chips.</text>
</svg>
